<svg xmlns="http://www.w3.org/2000/svg" version="1.1" x="0" y="0" width="153" height="152.6" viewBox="0 0 153 152.6" enable-background="new 0 0 153 152.6" xml:space="preserve"><g display="none"><path display="inline" fill="#FF2600" d="M137.3 28.7c-1.9-2.4-3.9-4.7-6.1-6.9 -1.6-1.6-3.4-3.2-5.1-4.7C123.4 25.2 118.3 34.3 115.2 39.5 120.3 36.4 129.2 31.4 137.3 28.7zM115.7 9.8C107.7 5.1 99.1 2 90.2 0.5 106.7 19.4 111.3 31.6 112.4 38 116 27.6 115.9 15 115.7 9.8zM113.6 51.3C115 76.5 101.4 103.5 88.9 122.5 81 134.6 72.7 144.9 66.6 152c17.7 2.4 36-1.4 51.6-11.4C133.4 109.3 120.3 68.1 113.6 51.3zM116.5 46.8c8.9 10.1 28.3 35.7 23.7 65.1 -0.6 3.8-1.6 7.6-2.9 11.2 8.5-10.8 13.6-23.4 15.5-36.3C147.7 65.2 126.7 52 116.5 46.8zM116.6 42.2c6.2 1.1 17.9 5.5 35.9 20.8 -1.4-8.4-4.2-16.5-8.5-24.1C138.5 38.7 126.5 38.8 116.6 42.2zM109.4 45.3C97.3 48.8 42.8 67.1 10.9 114.9c3.2 5.5 7.2 10.7 11.9 15.4 5.4 5.4 11.3 9.7 17.6 13.2C87.7 111.4 105.8 57.3 109.4 45.3zM107.8 38.1C102.1 27.1 87.1 3.2 61.9 0.8c-13.8 2.8-27 9.4-37.9 19.7 6-3.1 12.2-5.2 18.7-6.2C72.1 9.8 97.7 29.1 107.8 38.1zM1.4 89c7.1-6.2 17.9-15 30.7-23.4 19-12.4 46-26.1 71.2-24.7C85.8 34.1 41.7 20.1 10.1 38.5 1.4 54-1.5 71.9 1.4 89z"/></g><ellipse cx="76.5" cy="76.3" rx="76.3" ry="76.3"/><rect x="68.4" y="75" fill="none" width="60.6" height="34.9"/><rect x="23.9" y="42.7" fill="none" width="60.6" height="34.9"/><path fill="#FFFFFF" d="M52.2 116l4.6-22.3h-8.8v-7.8h10.4l3.9-19H47.9v-7.8h15.9l4.6-22.5h7.9l-4.6 22.5h16.5l4.6-22.5h7.9l-4.6 22.5h9.1v7.8H94.5l-3.9 19h14.6v7.8H89l-4.6 22.3h-7.9l4.5-22.3H64.6l-4.6 22.3H52.2zM66.2 85.9h16.4l3.9-19H70.1L66.2 85.9z"/></svg>